<svg xmlns="http://www.w3.org/2000/svg" xmlns:xlink="http://www.w3.org/1999/xlink" width="50" height="50" style="background:#efeff4" viewBox="0 0 50 50">
    <defs>
        <path id="a" d="M21.624 23.633l1.877-3.191.208-.354.93-1.58c.164-.28.204-.6.136-.896l3.476 6.02h-6.627zm-4.262 0h-5.566v2.857h3.885l-1.842 3.131-.108.184-.036.06-.042.1-1.273 4.647-.35 1.28 1.009-.861 3.698-3.157s.09-.104.17-.223c.08-.119.133-.227.133-.227l2.903-4.934H29.9l.107.185.102.176.102.177 1.553 2.69.155.267c-.003.771.17 1.589.433 1.946.205.279.427.499.694.704.121.093.179.133.433.305l.168.116c.076.054.408.251.417.257.184.113.335.223.478.353.439.397.736.93.86 1.694l.15.928.575-.743c.25-.324.28-.364.355-.486a1.99 1.99 0 0 0 .153-.309c.053-.133.103-.286.188-.574.265-.889.31-2.631.035-3.623-.288-1.04-.936-1.946-1.763-2.414l-.15-.258-.803-1.391h3.776v-2.857h-5.425l-6.38-11.05a1.225 1.225 0 0 0-1.675-.447l-1.056.61c-.59.34-.79 1.086-.45 1.673l1.479 2.563a1.231 1.231 0 0 0-.203-.153l-1.046-.628a1.212 1.212 0 0 0-1.676.422l-.956 1.624-.104.178-.103.174-2.961 5.034zm28.924 1.224c0 11.835-9.594 21.429-21.429 21.429-11.835 0-21.428-9.594-21.428-21.429 0-11.835 9.593-21.428 21.428-21.428s21.429 9.593 21.429 21.428z"/>
    </defs>
    <g fill="none" fill-rule="evenodd" transform="translate(-1470 -180)">
        <mask id="b" fill="#fff">
            <use xlink:href="#a"/>
        </mask>
        <use fill="#000" fill-rule="nonzero" xlink:href="#a"/>
        <g fill="#F45090" mask="url(#b)">
            <path d="M-24-24h96.241v96.241H-24z"/>
        </g>
    </g>
</svg>
